<svg width="900" height="760" viewBox="0 0 900 760" fill="none" xmlns="http://www.w3.org/2000/svg">
  <rect width="900" height="760" fill="#10213A"/>
  <rect x="54" y="80" width="792" height="600" rx="36" fill="url(#paint0_linear)"/>
  <path d="M112 530L284 380L424 470L606 318L788 450V644H112V530Z" fill="#F3E6CE" fill-opacity="0.22"/>
  <rect x="188" y="292" width="510" height="284" rx="20" fill="#F8F3EB"/>
  <rect x="188" y="248" width="210" height="68" rx="14" fill="#D8B36A"/>
  <rect x="418" y="248" width="280" height="116" rx="14" fill="#E8D19F"/>
  <rect x="222" y="330" width="154" height="160" rx="12" fill="#17385A"/>
  <rect x="398" y="392" width="112" height="184" rx="12" fill="#16314E"/>
  <rect x="532" y="392" width="132" height="184" rx="12" fill="#D8B36A"/>
  <rect x="222" y="510" width="154" height="66" rx="10" fill="#D9E4EB"/>
  <rect x="532" y="330" width="132" height="42" rx="10" fill="#D9E4EB"/>
  <circle cx="664" cy="186" r="52" fill="#D8B36A" fill-opacity="0.18"/>
  <path d="M160 630C194 574 236 550 286 558C344 568 376 636 430 640C486 644 522 594 584 590C648 586 680 618 728 664H160V630Z" fill="#E0C286" fill-opacity="0.28"/>
  <defs>
    <linearGradient id="paint0_linear" x1="110" y1="124" x2="790" y2="648" gradientUnits="userSpaceOnUse">
      <stop stop-color="#17385A"/>
      <stop offset="1" stop-color="#10213A"/>
    </linearGradient>
  </defs>
</svg>
