<svg width="900" height="640" viewBox="0 0 900 640" fill="none" xmlns="http://www.w3.org/2000/svg">
  <rect width="900" height="640" fill="#F8F3EB"/>
  <rect x="38" y="52" width="824" height="536" rx="34" fill="url(#paint0_linear)"/>
  <circle cx="742" cy="124" r="50" fill="#FFF3D5"/>
  <path d="M116 490L244 370L374 414L514 316L690 384L786 490V586H116V490Z" fill="#A7C489" fill-opacity="0.8"/>
  <rect x="164" y="224" width="572" height="250" rx="18" fill="#FDFBF7"/>
  <rect x="164" y="192" width="238" height="58" rx="12" fill="#D8B36A"/>
  <rect x="436" y="170" width="300" height="108" rx="12" fill="#E7D6B2"/>
  <rect x="208" y="274" width="176" height="152" rx="12" fill="#6C7C55"/>
  <rect x="414" y="322" width="122" height="152" rx="12" fill="#A56A4D"/>
  <rect x="564" y="322" width="128" height="152" rx="12" fill="#D8B36A"/>
  <path d="M90 542C184 490 264 472 330 488C414 508 464 562 562 560C646 560 718 522 810 456V586H90V542Z" fill="#7EA173" fill-opacity="0.72"/>
  <defs>
    <linearGradient id="paint0_linear" x1="92" y1="86" x2="814" y2="588" gradientUnits="userSpaceOnUse">
      <stop stop-color="#D7E6C2"/>
      <stop offset="1" stop-color="#A7C489"/>
    </linearGradient>
  </defs>
</svg>
