<svg xmlns="http://www.w3.org/2000/svg" width="75" height="10"><path fill="#1d1d1b" d="M14.814 5.037q.886-2.131-.15-3.316Q13.627.54 10.754.539H4.27l-.585 1.424H8.15c2.278 0 2.937 1.144 2.151 3.038-.453 1.095-.854 2.1-1.801 2.548-.868.412-1.764.532-3.358.532l-2.066-.005L4.619 4.39H2.674L.484 9.638h5.875q2.47.002 3.905-.46a7.4 7.4 0 0 0 2.825-1.675q1.162-1.11 1.725-2.466m36.914.957 3.948-3.87.82 3.87zM18.16 6.01l3.845-3.702.694 3.702zM55.338.528l.002.009h-2.407l-9.25 8.717L47.299.54h-3.965l-4.79 3.779-2.466 2.04h-.113l1.161-2.971L35.711.539h-3.985l-3.62 8.733L26.021.539h-4.365l-9.64 9.099h2.408l2.465-2.379h6.074l.483 2.379H29.9l2.335-5.624q.174-.424.338-.972.018.445.235.935l2.05 4.692h.348l5.872-4.675q.327-.261.997-.952-.338.639-.48.972l-2.332 5.624h4.262v-.004h4.493l2.435-2.39h6.308l.508 2.39h2.217L57.325.528zM74.49.54h-6.484q-2.872 0-4.888 1.18-2.016 1.185-2.902 3.317-.563 1.357-.321 2.466.283 1.17 1.434 1.675 1.057.462 3.527.46h5.862l.582-1.444H68q-2.39-.001-3.179-.62c-.578-.443-.513-1.477-.062-2.573.786-1.894 2.432-3.073 4.71-3.073h2.556l-.586 1.421h1.945L74.516.62h-.057z"/></svg>