<svg xmlns="http://www.w3.org/2000/svg" xml:space="preserve" id="Слой_1" width="932.2" height="221.6" x="0" y="0" version="1.1" viewBox="0 0 932.2 221.6"><style>.st0{fill:#d71b22}.st1{fill:#030303}.st2{fill:#040404}.st5{fill:#050505}</style><path d="M124 0c4.4 1 8.9 1.8 13.3 2.9 4.2 1.1 8.4 2.2 12.3 3.8 18.6 7.5 28 23 26.1 43-3.5 36.7-23.9 58.9-60.3 64.9-10.9 1.8-22.1 2.6-33.2 2.9-21 .4-42 .1-62.9.1-1.3 0-2.6-.1-4.6-.2 3.5-18.1 7-36 10.6-54.2H42c1.8-9.9 3.6-19.5 5.4-29.4h15.3c1.5-9.7 3-19 4.5-28.3.2-1.9 1.1-3.7 1.8-5.5h17c-.1 1.7.1 3.3-.2 5L73.5 72.5c-1.7 9.1-3.3 18.1-4.9 27.5 6.1 0 11.6.2 17 0 11.2-.4 20.4-5 26.3-14.6 9.4-15.5 12.2-32.6 9.6-50.2C120 25 113.2 19.4 102.9 18c-5.2-.7-10.5-.8-16-1.1.6-5.8 1.4-11.4 2.1-16.9z" class="st0"/><path d="M233 221.6c-3.3-.8-6.6-1.5-9.8-2.3-24.6-5.7-35.8-26.7-27.7-51.9 6.1-19.1 22.5-32.3 42.6-33.6 8.2-.5 16.8-1 24.8.5 23.9 4.3 36.1 25.6 29.7 50.1-5.3 20.1-22.9 34.3-44.6 36.2-1.3.1-2.6.7-3.9 1zm-11.1-37.8c.6 9.2 5.2 15.1 13.9 17.1 8.5 1.9 17.2-.9 21.5-8.8 3.3-6.1 5.7-13.1 6.7-19.9 1.9-12.1-6.1-20.2-18.4-19.6-8.2.4-14.4 4.7-17.6 12-2.7 6.1-4.1 12.7-6.1 19.2" class="st1"/><path d="M856 221.6c-3.3-.7-6.6-1.4-9.9-2-15.3-2.7-26.2-13-25.3-28.5 4.4-.2 9-.4 13.6-.7s9.3-.6 13.8-1c3.6 12.9 11.9 17.7 23.7 13 2.7-1.1 5.6-4.5 6.2-7.2.3-1.8-3-5.4-5.5-6.4-9.8-4.4-20.3-7.4-29.9-12.2-14.5-7.2-15.8-25.5-2.9-35.2 3.8-2.8 8.3-5.1 12.9-6.3 13.5-3.6 27.1-2.9 40.5.8 11.7 3.2 18.2 11 19.4 22.5-4.6.2-9.2.4-13.7.6-4.6.2-9.2.5-14.1.8-1-6.8-4.8-10.4-11.2-11.1-5.6-.6-11.1-.4-14.9 6.8 2.4 1.7 4.7 4.1 7.4 5.3 8.2 3.5 16.8 6.2 24.9 10 11.6 5.3 17.1 13.8 16 24-1 9.8-6.8 16.7-15.3 20.7-5.8 2.7-12.3 3.5-18.5 5.2-1.3.4-2.6.7-4 1-4.6-.1-8.9-.1-13.2-.1m-856-5c1.7-8.5 3.5-17 5-25.6 3.2-18.3 6.2-36.6 9.3-55 .1-.5.4-.9.8-1.8h12.7c13.2.1 26.3 0 39.5.5 13.5.5 22.8 7.9 24.8 19 2.3 12.8-3.6 25.4-16 30-7.6 2.8-16.1 3.4-24.3 4.4-5.1.6-10.3.1-16 .1-1.8 10.5-3.5 20.7-5.3 31.4H0zm38.8-45.3c5.5-.3 10.3.2 14.6-.9 3.4-.9 7-3.3 9.1-6.1 3.9-5.2.5-11.8-6-12.4-4.7-.4-9.5-.1-14.4-.1-1.1 6.4-2.1 12.6-3.3 19.5" class="st2"/><path d="M758.4 56.1c5.7 1.8 11.6 3.1 17 5.3 18.1 7.5 21.8 26.2 8.2 40.3-7.4 7.7-17 11-27 12.8-7.3 1.3-14.9 2.2-22.3 2.2-29 .2-58 .1-87 .1h-3.6C650.5 78.3 657.2 40.3 664 2h11.7c26.7.1 53.3 0 80 .5 7.4.1 14.9 1.7 22.1 3.5 7.7 1.9 14.5 5.9 16 14.6 1.7 9.7-.4 18.9-9.1 24.2-7.2 4.4-15.7 6.8-23.6 10.1-.7.3-1.5.5-2.3.7-.1 0-.2.2-.4.5m-55.1 5.3c-2.3 13.4-4.5 25.8-6.8 39.2 9.4-.5 17.9-.2 26.2-1.5 12.2-1.8 17.4-7.8 19.1-19.6 1.3-9.3-2.7-15.4-12.1-16.6-8.6-1-17.3-1-26.4-1.5m3-16.6c7 0 13.7.7 20.2-.2 4.8-.7 9.8-2.9 13.9-5.7 3.8-2.6 5.5-7.2 4.2-12-1.3-4.6-5.4-6.3-9.6-6.8-7.9-.8-15.8-1.1-24.1-1.6-1.6 9.1-3.1 17.5-4.6 26.3m-352.8 0c-4.4 24.8-8.5 48.2-12.7 71.9h-31.1c6.8-38.3 13.5-76.3 20.2-114.4h45.9c20.8 25.5 42 51.3 63.7 77.9 4.7-26.5 9.2-52.1 13.7-77.8h31.2c-6.8 38.3-13.5 76.3-20.2 114.4h-52.7c-19-23.7-38.1-47.3-58-72" style="fill:#d61b22"/><path d="M502.2 2.4h49.5c-3.1 17.8-6.3 35.2-9.3 52.7-1.5 9.1-3.2 18.3-3.8 27.6-.6 8.9 3.1 13.2 11.8 15.1 9.9 2.2 19.8 2.1 29.6-.4 13-3.4 20.6-11.9 23-24.9 4.2-23.2 8.3-46.4 12.4-70h31c-1.2 7-2.3 14-3.5 20.9-3.2 18-6.7 35.9-9.5 53.9-2.4 15-10.8 24.9-23.9 31.6-11.6 5.9-24.2 8.5-37 9.3-20.8 1.3-41.6 1.4-61.9-4.3-1-.3-1.9-.6-2.8-.9-15.8-5.8-22.1-15.3-19.5-31.9 4.1-25.6 8.9-51 13.4-76.5 0-.6.2-1.3.5-2.2M916 94.5c-1.4 7.9-2.7 14.9-4 22.1H801.1c6.7-38.1 13.4-76.1 20.1-114.2h111c-1.3 7.5-2.6 14.6-3.9 22.1h-61c-1.4 7.9-2.8 15.4-4.3 23.6h51.3c-1.3 7.9-2.5 15.1-3.8 22.6h-51.4c-1.4 7.9-2.8 15.6-4.2 23.7 20.4.1 40.4.1 61.1.1" class="st0"/><path d="M305.9 116.8h-50c-1.7-7.3-3.3-14.5-5-21.8h-53.6c-4.3 7.1-8.8 14.4-13.4 21.8h-26.8c23.7-38.4 47.1-76.3 70.6-114.4h51c9 37.9 18 75.9 27.2 114.4m-69.5-86.6c-10 16.5-19.4 31.9-29 47.9h39.8c-3.6-15.9-7.1-31.3-10.8-47.9" style="fill:#d61b21"/><path d="M166 183.6c7.4 11.7 14.8 23.2 22.7 35.7h-32.8c-4.6-8.3-9.3-16.9-14.1-25.4-4.2-7.4-6.7-8.8-13.6-8.2-1.9 11.1-3.9 22.3-5.9 33.7H92.1c4.8-28.3 9.6-56.5 14.4-84.3.6-.4.9-.7 1.2-.7 20.3.1 40.7-.4 61 .5 16.8.8 26.8 16.6 21.3 32.1-3.1 8.9-10.2 13.1-18.7 15.5-2 .5-4 .8-5.3 1.1m-34.8-15.5c7.7 0 15.2.5 22.5-.2 2.8-.3 6-2.8 7.9-5.2 2.9-3.8.4-9.6-4.2-9.9-7.7-.5-15.5-.1-23.5-.1-.9 5-1.9 10.3-2.7 15.4m348.3 51.3c5.6-28.6 11.2-56.8 16.7-84.7 21.3 0 42.2-.5 63.2.2 10.9.3 19.2 8.8 20.6 18.5 1.8 12.3-3.6 22.6-14.7 27-3.8 1.5-7.9 2.4-11 3.3 7 11.4 14.3 23.1 22.1 35.6h-33c-3.7-6.9-7.4-14.1-11.2-21.2-1.5-2.8-2.7-5.9-4.9-8-2.5-2.5-5.9-4.1-10.2-6.9-2.7 13.3-5 24.7-7.4 36.2zm43.6-67.2c-1.1 5.6-2.1 10.9-3.2 16.1 7.3 0 14.3.3 21.2-.1 2.5-.1 5.6-1.2 7.1-3 1.8-2.1 3.4-5.7 2.8-8.1-.5-2-4-4.5-6.4-4.7-6.9-.6-13.9-.2-21.5-.2" class="st1"/><path d="M424.9 183.6c-1.1 5.6-2.1 10.7-3.2 16.4H475c-1.4 6.8-2.6 13.1-3.9 19.5h-83.3c5.5-28.5 10.9-56.7 16.3-85h79.7c-1.2 6.2-2.3 12.1-3.5 18.4H431c-.9 4.5-1.7 8.7-2.6 13.3h47.4c-1.3 6.1-2.4 11.7-3.6 17.5-15.7-.1-31.2-.1-47.3-.1M809.2 166c-1.5 6.3-2.7 11.7-4 17.5h-47.3c-1.2 5.5-2.3 10.6-3.6 16.4h53.3c-1.5 6.9-2.9 13.1-4.3 19.5H720c6.1-28.4 12.2-56.7 18.2-85h79.7c-1.3 6.2-2.6 12.1-3.9 18.4h-49.3c-1 4.4-1.9 8.5-2.9 13.2z" class="st5"/><path d="M295.7 219.4c5.3-28.2 10.6-56.2 15.9-84.4 1.3-.3 2.4-.7 3.5-.7 16 .1 32-.1 47.9.4 15 .5 23.7 7.1 25.8 18.7 2.4 13.1-4.3 25.5-17.3 30.8-4.7 1.9-9.9 3-15 3.3-7.9.5-15.9.1-24.5.1-1.1 5.7-2.1 10.8-3.1 15.9-1 5.2-2 10.4-3 15.8-10 .1-19.9.1-30.2.1m39.6-48.3c2.5 0 4.1.1 5.7 0 3.1-.2 6.6.3 9.3-.8 3.3-1.4 6.9-3.6 8.9-6.4 3.8-5.4.5-11.6-6.2-12.1-4.6-.4-9.2-.1-14.1-.1-1.1 6.4-2.3 12.6-3.6 19.4" class="st2"/><path d="M617.9 155.5h-30.1c1.5-7.2 2.8-13.9 4.3-20.9h92.2c-1.5 6.9-2.9 13.8-4.4 20.9h-31.5c-4.5 21.5-9 42.7-13.5 64h-30.2c4.3-21.3 8.7-42.3 13.2-64" class="st5"/><path d="M723 134.7c-6 28.2-12.1 56.4-18.1 84.7h-30.5c6-28.3 11.9-56.3 17.9-84.7z" class="st2"/></svg>