<svg xmlns="http://www.w3.org/2000/svg" xml:space="preserve" viewBox="0 0 198.6 50"><path d="M38.7 13.7h-4.6v22.7h4.6zm-11.4 0h-4.6v22.7h4.6zm-11.4 0h-4.6v22.7h4.6zM8.2 4.6h33.6V0H8.2zM4.6 41.8V8.2H0v33.6zM45.4 8.2v33.6H50V8.2zm-3.6 37.2H8.2V50h33.6zm38.1-9.1h4.4V13.7h-5.6l-6.4 17.1L66 13.7h-5.7v22.7h4.3V21l5.8 15.4h3.7L79.9 21zm8.8 0h16.7v-4h-12v-5.6h11v-4.1h-11v-5h11.7v-4H88.7zm34.8 0h5.2l-4.9-9.6c1.2-.5 2.1-1.4 2.8-2.5.6-1.1.9-2.4.9-3.7 0-.9-.1-1.8-.4-2.6s-.8-1.6-1.5-2.2c-.8-.7-1.8-1.2-2.8-1.5-1.4-.4-2.9-.6-4.4-.6h-8.8v22.7h4.7v-8.5h4.9zm-9.2-12.4v-6.3h4c.7 0 1.4.1 2.1.2.5.1.9.3 1.3.6.3.3.6.6.7 1s.2.8.2 1.2c0 .5-.1.9-.2 1.4-.1.4-.4.7-.7 1-.4.3-.8.5-1.3.7-.6.2-1.3.2-2 .2zm33.9 12.4h5.1l-9-22.7h-4.8l-9 22.7h4.9l1.9-5.2h9zm-6.5-17.5 3.1 8.4h-6.2zm30.9 17.5h5.1l-9-22.7h-4.8l-9 22.7h4.9l1.9-5.2h9zm-6.4-17.5 3.1 8.4h-6.2zm32-.3c-.2-.7-.5-1.3-.9-1.9-.5-.7-1-1.3-1.7-1.7-.8-.6-1.8-1-2.8-1.3q-3.9-1.05-7.8 0c-1.1.3-2.1.7-2.9 1.4-.8.6-1.4 1.3-1.9 2.2s-.7 1.9-.7 2.9c-.1 1.7.6 3.4 1.9 4.5 1.7 1.2 3.7 1.9 5.7 2.1l3.2.6c1 .1 1.9.5 2.6 1.1.5.4.7 1.1.7 1.7 0 .8-.4 1.6-1 2.1-1 .6-2.2.9-3.4.8-1.3 0-2.6-.3-3.7-.8-1.3-.6-2.4-1.6-3.2-2.8l-3.3 3.1c1.1 1.4 2.5 2.6 4.1 3.3 1.9.8 3.9 1.2 6 1.1q2.1 0 4.2-.6c1.1-.3 2.1-.9 3-1.6.8-.6 1.4-1.4 1.8-2.3s.6-1.9.6-2.9c0-1.6-.6-3.1-1.7-4.2-1.6-1.3-3.5-2.1-5.6-2.4l-3.5-.6c-1-.1-1.9-.4-2.7-1-.5-.5-.8-1.2-.7-1.9 0-.7.4-1.4 1-1.8.4-.3.9-.4 1.4-.5.7-.1 1.4-.2 2.1-.2 1.2-.1 2.3.2 3.4.8.9.6 1.6 1.5 2 2.5z"/></svg>