<svg xmlns="http://www.w3.org/2000/svg" xml:space="preserve" viewBox="0 0 658 264.8"><path d="M199.3 63.8h-13.2q0-7.2-2.4-9.9c-1.9-1.9-5.2-3.2-10-3.8-2.8-.3-7.3-.5-13.7-.5-9.6 0-16 .2-19.1.6-3.6.4-6.3 1-8.2 1.9s-3.3 2.1-4.3 3.8c-1 1.8-1.5 4.2-1.5 7.1 0 3.7.7 6.6 2.2 8.7 1.7 2.4 5.8 3.9 12.4 4.4 1.8.2 7.8.4 18.1.7q16.35.45 22.5 1.2c4.3.6 7.8 1.5 10.3 2.7 2.6 1.2 4.7 2.9 6.2 5.1 1.9 2.6 2.9 6.8 2.9 12.5 0 8.2-2 13.7-6.1 16.6-4 3-10 4.7-17.9 5.3-6 .4-13.6.7-22.9.7-12 0-20.1-.5-24.4-1.3-9.7-2-15.3-6.8-16.7-14.6-.4-1.6-.6-4.6-.7-8.7H126V98c.1 4 .6 7 1.5 8.9.9 2 2.7 3.5 5.1 4.5 2.2 1 5.6 1.5 10.3 1.7 4.3 0 9.3.1 15.1.1 8.5 0 14.7-.2 18.4-.8 3.8-.5 6.6-1.4 8.5-2.8 2.3-1.7 3.5-5.9 3.5-12.3 0-3.3-.7-5.8-1.8-7.4-1.7-2.3-5.5-3.8-11.4-4.3-1.7-.1-7.9-.4-18.8-.8-10.2-.3-16.4-.6-18.6-.8-8.6-.8-14.8-2.8-18.9-6.3-3.4-2.9-5.1-7.5-5.1-13.6q0-13.05 8.7-17.4c4.5-2.2 10.5-3.5 18-4 5-.3 10.7-.4 16.8-.4 12.5 0 21.1.5 26.2 1.6 8.7 1.8 13.8 5.9 15.3 12.1.2 1.7.5 4.3.5 7.8M225 50.4v26.1h59.6v7.3H225v28.7h62.2v7.4h-75.4V43h75.4v7.4zm85.8-7.5v68.9h60.4v8.1h-73.6v-77zm84 7.5v26.1h59.6v7.3h-59.6v28.7H457v7.4h-75.4V43H457v7.4zM549 94.2h13.2V98c0 6.7-1.1 11.6-3.6 14.6-3.2 4-9.4 6.5-18.5 7.4-4.2.4-14.2.7-30 .7-9.5 0-16.9-.6-22.1-1.7-8.9-1.8-14.8-6-17.7-12.5-1.9-4.4-2.8-12.6-2.8-24.8 0-10.3.1-16.6.4-18.9.6-5.2 2.6-9.2 6-12.4 3.4-3 8.5-5.2 15.2-6.6 5.7-1.2 17.1-1.7 34.3-1.7 9.4 0 16.1.4 20.2 1.2 9 1.9 14.4 6.1 16.1 12.6.5 1.6.8 5.1 1.1 10.5h-13.2l-.1-2.4c0-3.6-.5-6.3-1.4-8.2s-2.3-3.3-4.3-4.2q-4.5-2.1-19.2-2.1c-11 0-19.5.3-25.4.7-3.8.3-6.9 1-9.1 2.1-2.2 1.2-3.9 2.8-4.9 5.1q-1.8 3.45-1.8 11.4c0 9.3.2 17.5.5 24.6.4 9.1 2.9 14.8 7.3 17 3 1.5 7.8 2.3 14.4 2.5 3.4.1 7 .2 10.8.2 9.3 0 16.2-.2 20.9-.7s8-1.3 9.7-2.4c2.8-1.8 4.1-5.4 4.1-11 0-1.2 0-2.8-.1-4.8m71-43.1v68.8h-13.2V51h-38.2v-8H658v8.1zM159.5 183.6h50.3c.2 2.1.4 4.4.4 7 0 6-.1 10.3-.4 12.9-.4 4.6-1.9 8.3-4.3 11-2.5 2.9-6.2 4.9-11.1 6.1-5.1 1.4-15.9 2.1-32.3 2.1-11.4 0-19.9-.4-25.4-1.2-5.4-.8-10.1-2.3-13.8-4.6-5.7-3.4-8.9-8.6-9.5-15.5-.3-2.8-.4-6.3-.4-10.6 0-.7 0-3.5-.1-8.5v-3.1c0-5.8.2-10.2.8-13.2 1.7-10.5 7.5-17 17.2-19.7 4.2-1.1 9.7-1.8 16.5-2 4-.2 9.4-.2 16-.2q14.25 0 20.1.3c3.9.2 7.2.6 10.1 1.3 9.9 2.2 15.3 7 16.2 14.3.1 1.4.1 3.7.1 7.2h-13c-.1-3.4-.2-5.8-.5-7.1l-1.9-4c-1.7-2.3-5.9-3.6-12.6-4.1-4.3-.3-11.9-.5-22.8-.5-9.6 0-16.8.4-21.2 1.3-5.3 1.1-8.7 3.9-10.2 8.6-.8 2.4-1.3 9.6-1.4 21.6.1 9.5.2 15.1.4 16.8.3 4.2 1.3 7.5 3.2 9.7 1.8 2.2 4.7 3.7 8.6 4.4 4.9.9 14.4 1.4 28.5 1.4 7.9 0 13.9-.3 17.9-.9s6.9-1.6 8.5-2.9c2.5-2.1 3.8-7.3 3.8-15.5 0-1.1-.1-2.7-.2-4.9h-37.3v-7.5m65.5 38.3v-77h55.9c10.4 0 18.2 1.1 23.5 3.4 4.6 2 7.7 4.9 9.3 8.9 1.1 2.4 1.6 5.7 1.6 9.8 0 8.4-2.3 14-6.9 16.7-2.9 1.7-7.3 2.8-13.4 3.5v.1c5.6.2 10.1 1.5 13.4 3.9 2.6 1.9 4.3 4.4 4.8 7.2l.4 3.8v19.7h-13.1v-17.6c0-2.5-.4-4.6-1-6.3-2.4-5.1-9.5-7.5-21.2-7.2h-40.1v31.1zm13.1-38.6h38.3c8.5 0 14.8-.7 18.6-2.3 4.7-1.9 7.1-5.6 7.1-11.2 0-3.3-.1-6-.4-8.2-.7-4.6-3.9-7.5-9.8-8.5-3.1-.5-6.8-.8-10.9-.8h-42.9zm143.5-39.2c8.2 0 14.4.2 18.9.5 4.5.4 8.4 1 11.7 2 9.6 2.7 15.4 8.8 17.3 18.4.5 2.7.8 7.4.8 14.2 0 12.2-.3 19.9-1 23-.9 5-2.7 8.8-5.1 11.4-2.4 2.7-5.9 4.8-10.7 6.2-4.9 1.5-11.2 2.4-18.8 2.7-4 .2-8.8.2-14.5.2-9.7 0-16.8-.2-21.2-.6-4.4-.3-8.5-1.1-12.1-2.3-7.7-2.4-12.6-6.8-14.6-13.2-1.4-4.2-2.1-10.3-2.2-18.4v-10.7c0-5.6.3-9.8.8-12.6 1-4.9 2.9-8.8 5.6-11.8 2.8-2.9 6.6-5.1 11.6-6.5 4.4-1.2 10-1.9 16.9-2.2 4.7-.2 10.1-.3 16.6-.3m-2.8 7.5c-7.4 0-12.7.1-16.1.3-3.3.2-6.2.7-8.6 1.3-4.5 1.2-7.6 4-9.1 8.2-1 2.8-1.6 6-1.6 9.6v12.3c0 9.7.2 15.3.4 17.1.6 3.9 1.6 6.8 3.2 8.8s3.9 3.5 7 4.3c2.8.8 6.8 1.3 11.9 1.5 3.8.1 8.5.2 14.3.2 12.2 0 20.1-.4 23.6-1 3.3-.6 5.9-1.7 7.7-3s3.2-3.3 4.1-5.8c1-2.8 1.5-6 1.5-9.7l-.1-12.4c0-9.5-.1-15.3-.4-17.1-.5-3.9-1.6-6.8-3.2-8.8s-3.9-3.4-7.1-4.3c-2.9-.8-6.9-1.3-12.1-1.5zm150.2-6.7h13.2v53.9c0 6.5-1.1 11.1-3.2 14-3.1 4.3-8.9 7.2-17.2 8.6-4.6.8-13.1 1.2-25.3 1.2-8.7 0-15.1-.1-19.2-.4-4.1-.2-7.6-.7-10.7-1.5-6.8-1.6-11.5-4.2-14.1-7.7-2.2-3-3.3-7.7-3.3-14.2v-53.9h13.1v53.9c0 5.7.8 9.5 2.5 11.3 2.1 2.3 6 3.8 11.8 4.5 3.2.4 9.1.7 17.5.7 12.6 0 21.1-.5 25.6-1.5 4.2-1 6.9-3.1 8.2-6.7.7-1.8 1-4.5 1-8.3v-53.9m32.3 77v-77h49.2c5.5 0 9.4 0 11.8.1 5.8.3 10.4 1 13.8 2 3.4 1.1 6.1 2.8 8.2 5.1 3.3 3.6 5 9.1 5 16.4 0 6.5-1.3 11.4-3.9 14.6-3.3 4.1-8.4 6.7-15.5 7.7-2.4.4-9.5.6-21.5.7h-33.9v30.2h-13.2m13.2-37.5H606c10.4 0 17.4-.4 21-1.4 4.2-1 6.9-3.1 8.3-6.3.7-1.5 1-3.8 1-6.9 0-5.5-.5-9.4-1.7-11.7-1.3-2.7-4.4-4.4-9.1-5.1-1.9-.3-6.9-.4-15.2-.5h-35.6v31.9z"/><linearGradient id="a" x1="-2.158" x2="75.988" y1="92.246" y2="208.831" gradientUnits="userSpaceOnUse"><stop offset="0" style="stop-color:#27306c"/><stop offset=".123" style="stop-color:#294e84"/><stop offset=".179" style="stop-color:#296196"/><stop offset=".25" style="stop-color:#2978ac"/><stop offset=".319" style="stop-color:#268cc0"/><stop offset=".385" style="stop-color:#219cd1"/><stop offset=".446" style="stop-color:#1da6dc"/><stop offset=".497" style="stop-color:#19a9e1"/><stop offset=".54" style="stop-color:#1ea4da"/><stop offset=".602" style="stop-color:#2396ca"/><stop offset=".676" style="stop-color:#2882b5"/><stop offset=".758" style="stop-color:#2b699c"/><stop offset=".847" style="stop-color:#294b81"/><stop offset=".919" style="stop-color:#282f6c"/></linearGradient><path d="M32.9 251.7c25.4-28.1-1.8-66.6-1.8-66.6C6.3 151 1.9 127.7 1.9 127.7-10.7 78.9 42.4 22.9 42.4 22.9c-20.6 29.2-7.7 83.8-7.7 83.8 2.7 17 27.6 53.8 27.6 53.8 23.3 33.9-2.9 71.3-2.9 71.3s-13.8 17.8-37.3 32.4c0 0 7.3-8.2 10.8-12.5" style="fill:url(#a)"/><linearGradient id="b" x1="-14.238" x2="99.939" y1="41.819" y2="219.233" gradientUnits="userSpaceOnUse"><stop offset="0" style="stop-color:#21a9e1"/><stop offset=".119" style="stop-color:#21a9e1"/><stop offset=".392" style="stop-color:#293f77"/><stop offset=".5" style="stop-color:#282f6c"/><stop offset=".611" style="stop-color:#293c75"/><stop offset=".891" style="stop-color:#21a9e1"/><stop offset="1" style="stop-color:#21a9e1"/></linearGradient><path d="M66.7 0s-18.3 23.5-6.3 57.8c0 0 8.2 19.2 23.6 41 0 0 26.9 37.5 10.3 77.7 0 0-17.8 52.9-72.9 88.3 0 0 52.6-44.1 51.1-91.5 0 0 1.4-25.4-32.6-68C39.8 105.3-5.4 52 66.7 0" style="fill:url(#b)"/></svg>